<svg width="734.000000" height="640.000000" viewBox="0 0 734 640" fill="none" xmlns="http://www.w3.org/2000/svg" xmlns:xlink="http://www.w3.org/1999/xlink">
	<desc>
			Created with Pixso.
	</desc>
	<defs>
		<pattern id="pattern_1_660" patternContentUnits="objectBoundingBox" width="1.000000" height="1.000000">
			<use xlink:href="#image1_66_0" transform="matrix(0.001362,0,0,0.001563,-0.004087,0)"/>
		</pattern>
		<image id="image1_66_0" width="740.000000" height="640.000000" xlink:href=""/>
	</defs>
	<rect id="home 1" width="734.000000" height="640.000000" fill="url(#pattern_1_660)" fill-opacity="1.000000"/>
	<path id="floor-02" d="M222 526L442.8 534L512 520.3L512 542L443.5 561.7L222 550.7L222 526Z" fill="#3595F6" fill-opacity="0.750000" fill-rule="nonzero"/>
	<path id="floor-03" d="M223 525L223 500L443.3 503.3L513 500L513 520L443.7 533L223 525Z" fill="#3595F6" fill-opacity="0.750000" fill-rule="nonzero"/>
	<path id="floor-04" d="M223 499L223 474L444 474L513 474L513 497L445 504L223 499Z" fill="#3595F6" fill-opacity="0.750000" fill-rule="nonzero"/>
	<path id="floor-05" d="M223 475L223 450L444.3 446.3L512 453L512 475L444 475L223 475Z" fill="#3595F6" fill-opacity="0.750000" fill-rule="nonzero"/>
	<path id="floor-06" d="M223 449L223 423L444.5 419.7L513 430.7L513 452L444 445.3L223 449Z" fill="#3595F6" fill-opacity="0.750000" fill-rule="nonzero"/>
	<path id="floor-07" d="M222 422L222 398.3L443 386L514 409L514 430.3L443 418L222 422Z" fill="#3595F6" fill-opacity="0.750000" fill-rule="nonzero"/>
	<path id="floor-08" d="M222 400L222 375L444.2 358.7L514 387.3L514 408L443.7 386.3L222 400Z" fill="#3595F6" fill-opacity="0.750000" fill-rule="nonzero"/>
	<path id="floor-09" d="M222 375L222 350L444.5 329.7L514 366.3L514 387L442 358.3L222 375Z" fill="#3595F6" fill-opacity="0.750000" fill-rule="nonzero"/>
	<path id="floor-10" d="M222 349L222 325L445 300.29L514 344.3L514 366L444.7 328L222 349Z" fill="#3595F6" fill-opacity="0.750000" fill-rule="nonzero"/>
	<path id="floor-11" d="M222 324L222 300L444.5 271.29L514 322.29L514 343L443.7 300.7L222 324Z" fill="#3595F6" fill-opacity="0.750000" fill-rule="nonzero"/>
	<path id="floor-12" d="M221 300L221 276L443.3 243L514 302.29L514 322L444 271.29L221 300Z" fill="#3595F6" fill-opacity="0.750000" fill-rule="nonzero"/>
	<path id="floor-13" d="M222 275L222 251L443.2 216L513 280L513 301L444.3 242.7L222 275Z" fill="#3595F6" fill-opacity="0.750000" fill-rule="nonzero"/>
	<path id="floor-14" d="M222 251L222 226L444.3 188L513 258.29L513 279L444 215L222 251Z" fill="#3595F6" fill-opacity="0.750000" fill-rule="nonzero"/>
	<path id="floor-15" d="M222 225L222 200L442.8 156.3L513 235.3L513 258L444 184.7L222 225Z" fill="#3595F6" fill-opacity="0.750000" fill-rule="nonzero"/>
	<path id="floor-16" d="M223 201L223 176L443 128L513 213L513 236L442.3 156.7L223 201Z" fill="#3595F6" fill-opacity="0.750000" fill-rule="nonzero"/>
	<path id="floor-17" d="M222 176L222 151L441.8 99L513 191.3L513 214L443.3 127.7L222 176Z" fill="#3595F6" fill-opacity="0.750000" fill-rule="nonzero"/>
	<path id="floor-18" d="M222 151L222 125L444 68.3L513 170L513 191L443.7 99.3L222 151Z" fill="#3595F6" fill-opacity="0.750000" fill-rule="nonzero"/>
</svg>
