<svg width="121.000000" height="33.000000" viewBox="0 0 121 33" fill="none" xmlns="http://www.w3.org/2000/svg" xmlns:xlink="http://www.w3.org/1999/xlink">
	<desc>
			Created with Pixso.
	</desc>
	<defs/>
	<path id="Мелодия" d="M60.8 29.27C56.42 29.27 54.24 26.4 54.24 22.05L54.24 7.21C54.24 2.82 56.42 0 60.8 0C65.23 0 67.4 2.82 67.4 7.21L67.4 22.05C67.4 26.4 65.23 29.27 60.8 29.27ZM15.17 28.98L15.17 5.9L10.61 28.94L7.54 28.94L2.78 6.1L2.78 28.98L0 28.98L0 0.28L4.46 0.28L9.18 23.2L13.73 0.28L18.2 0.28L18.2 28.98L15.17 28.98ZM24.7 3.19L24.7 12.99L31.71 12.99L31.71 15.86L24.7 15.86L24.7 26.07L33.3 26.07L33.3 28.98L21.5 28.98L21.5 0.28L33.3 0.28L33.3 3.19L24.7 3.19ZM47.87 28.98L47.87 3.19L42.38 3.19L41.72 21.85C41.56 26.4 40.33 28.98 35.94 29.02L35.41 29.02L35.41 26.11C38.08 26.11 38.53 24.76 38.61 22.01L39.39 0.28L51.07 0.28L51.07 28.98L47.87 28.98ZM87.69 26.15L87.69 32.92L84.57 32.92L84.57 28.98L72.84 28.98L72.84 32.92L69.77 32.92L69.77 26.15L71.61 26.15C72.6 25.05 72.8 23.73 72.88 21.97L73.99 0.28L85.51 0.28L85.51 26.15L87.69 26.15ZM101.14 28.98L101.14 6.14L98.03 15.74L93.81 28.98L90.48 28.98L90.48 0.28L93.31 0.28L93.31 21.68L95.86 13.77L100.45 0.28L104.01 0.28L104.01 28.98L101.14 28.98ZM116.94 28.98L116.94 16.72L114.68 16.72C112.02 16.72 110.5 17.75 110.5 20.99L110.5 25.5C110.5 27.42 110.34 28.16 109.97 28.98L106.73 28.98C107.22 28 107.3 26.81 107.3 25.54L107.3 21.07C107.3 17.99 108.29 15.86 110.87 15.08C108.45 14.3 107.34 12.34 107.34 9.18L107.34 6.84C107.34 2.58 109.23 0.28 113.74 0.28L120.14 0.28L120.14 28.98L116.94 28.98ZM60.8 2.91C58.51 2.91 57.4 4.46 57.4 7.05L57.4 22.22C57.4 24.84 58.51 26.36 60.8 26.36C63.14 26.36 64.21 24.84 64.21 22.22L64.21 7.05C64.21 4.46 63.14 2.91 60.8 2.91ZM82.27 3.19L76.94 3.19L76 21.93C75.88 23.98 75.59 25.21 74.69 26.15L82.27 26.15L82.27 3.19ZM116.94 13.81L116.94 3.19L113.82 3.19C111.44 3.19 110.5 4.55 110.5 7.13L110.5 9.88C110.5 12.99 112.02 13.81 114.52 13.81L116.94 13.81Z" fill="#FFFFFF" fill-opacity="1.000000" fill-rule="evenodd"/>
</svg>
